<svg id="visual" viewBox="0 0 2160 1080" width="2160" height="1080" xmlns="http://www.w3.org/2000/svg" xmlns:xlink="http://www.w3.org/1999/xlink" version="1.1"><rect x="0" y="0" width="2160" height="1080" fill="#ffffff"></rect><defs><linearGradient id="grad1_0" x1="50%" y1="100%" x2="100%" y2="0%"><stop offset="10%" stop-color="#ff0000" stop-opacity="1"></stop><stop offset="90%" stop-color="#ff0000" stop-opacity="1"></stop></linearGradient></defs><defs><linearGradient id="grad1_1" x1="50%" y1="100%" x2="100%" y2="0%"><stop offset="10%" stop-color="#ff0000" stop-opacity="1"></stop><stop offset="90%" stop-color="#ff9e81" stop-opacity="1"></stop></linearGradient></defs><defs><linearGradient id="grad1_2" x1="50%" y1="100%" x2="100%" y2="0%"><stop offset="10%" stop-color="#ffffff" stop-opacity="1"></stop><stop offset="90%" stop-color="#ff9e81" stop-opacity="1"></stop></linearGradient></defs><defs><linearGradient id="grad2_0" x1="0%" y1="100%" x2="50%" y2="0%"><stop offset="10%" stop-color="#ff0000" stop-opacity="1"></stop><stop offset="90%" stop-color="#ff0000" stop-opacity="1"></stop></linearGradient></defs><defs><linearGradient id="grad2_1" x1="0%" y1="100%" x2="50%" y2="0%"><stop offset="10%" stop-color="#ff9e81" stop-opacity="1"></stop><stop offset="90%" stop-color="#ff0000" stop-opacity="1"></stop></linearGradient></defs><defs><linearGradient id="grad2_2" x1="0%" y1="100%" x2="50%" y2="0%"><stop offset="10%" stop-color="#ff9e81" stop-opacity="1"></stop><stop offset="90%" stop-color="#ffffff" stop-opacity="1"></stop></linearGradient></defs><g transform="translate(2160, 1080)"><path d="M-972 0C-971.4 -64.6 -970.8 -129.1 -953.3 -189.6C-935.9 -250.1 -901.6 -306.5 -864.8 -358.2C-827.9 -409.9 -788.6 -456.9 -747.5 -499.5C-706.4 -542 -663.6 -580.2 -624.4 -624.4C-585.1 -668.6 -549.4 -718.9 -497.2 -744.2C-445.1 -769.5 -376.5 -769.8 -317.2 -765.9C-258 -762 -208 -753.9 -156.7 -787.6C-105.3 -821.2 -52.7 -896.6 0 -972L0 0Z" fill="#ffcfbf"></path><path d="M-648 0C-647.6 -43 -647.2 -86.1 -635.5 -126.4C-623.9 -166.7 -601.1 -204.3 -576.5 -238.8C-551.9 -273.3 -525.7 -304.6 -498.3 -333C-470.9 -361.4 -442.4 -386.8 -416.3 -416.3C-390.1 -445.7 -366.3 -479.2 -331.5 -496.1C-296.7 -513 -251 -513.2 -211.5 -510.6C-172 -508 -138.7 -502.6 -104.4 -525C-70.2 -547.5 -35.1 -597.7 0 -648L0 0Z" fill="#ff6846"></path><path d="M-324 0C-323.8 -21.5 -323.6 -43 -317.8 -63.2C-312 -83.4 -300.5 -102.2 -288.3 -119.4C-276 -136.6 -262.9 -152.3 -249.2 -166.5C-235.5 -180.7 -221.2 -193.4 -208.1 -208.1C-195 -222.9 -183.1 -239.6 -165.7 -248.1C-148.4 -256.5 -125.5 -256.6 -105.7 -255.3C-86 -254 -69.3 -251.3 -52.2 -262.5C-35.1 -273.7 -17.6 -298.9 0 -324L0 0Z" fill="#ff0000"></path></g><g transform="translate(0, 0)"><path d="M972 0C905.6 54.2 839.2 108.5 812.1 161.5C785 214.6 797.3 266.5 805.6 333.7C814 400.9 818.4 483.5 765 511.1C711.5 538.8 600.1 511.5 563.6 563.6C527 615.6 565.3 746.9 540 808.2C514.8 869.5 426 860.8 354.7 856.4C283.5 852 229.6 851.9 173.4 871.9C117.2 891.9 58.6 931.9 0 972L0 0Z" fill="#ffcfbf"></path><path d="M648 0C603.7 36.2 559.4 72.3 541.4 107.7C523.3 143.1 531.5 177.7 537.1 222.5C542.6 267.3 545.6 322.3 510 340.7C474.3 359.2 400.1 341 375.7 375.7C351.3 410.4 376.8 497.9 360 538.8C343.2 579.7 284 573.9 236.5 571C189 568 153.1 568 115.6 581.3C78.1 594.6 39.1 621.3 0 648L0 0Z" fill="#ff6846"></path><path d="M324 0C301.9 18.1 279.7 36.2 270.7 53.8C261.7 71.5 265.8 88.8 268.5 111.2C271.3 133.6 272.8 161.2 255 170.4C237.2 179.6 200 170.5 187.9 187.9C175.7 205.2 188.4 249 180 269.4C171.6 289.8 142 286.9 118.2 285.5C94.5 284 76.5 284 57.8 290.6C39.1 297.3 19.5 310.6 0 324L0 0Z" fill="#ff0000"></path></g></svg>