<svg id="visual" viewBox="0 0 2160 1080" width="2160" height="1080" xmlns="http://www.w3.org/2000/svg" xmlns:xlink="http://www.w3.org/1999/xlink" version="1.1"><rect x="0" y="0" width="2160" height="1080" fill="#ffffff"></rect><defs><linearGradient id="grad1_0" x1="50%" y1="0%" x2="100%" y2="100%"><stop offset="10%" stop-color="#ff0000" stop-opacity="1"></stop><stop offset="90%" stop-color="#ff0000" stop-opacity="1"></stop></linearGradient></defs><defs><linearGradient id="grad1_1" x1="50%" y1="0%" x2="100%" y2="100%"><stop offset="10%" stop-color="#ff0000" stop-opacity="1"></stop><stop offset="90%" stop-color="#ff9e81" stop-opacity="1"></stop></linearGradient></defs><defs><linearGradient id="grad1_2" x1="50%" y1="0%" x2="100%" y2="100%"><stop offset="10%" stop-color="#ffffff" stop-opacity="1"></stop><stop offset="90%" stop-color="#ff9e81" stop-opacity="1"></stop></linearGradient></defs><defs><linearGradient id="grad2_0" x1="0%" y1="0%" x2="50%" y2="100%"><stop offset="10%" stop-color="#ff0000" stop-opacity="1"></stop><stop offset="90%" stop-color="#ff0000" stop-opacity="1"></stop></linearGradient></defs><defs><linearGradient id="grad2_1" x1="0%" y1="0%" x2="50%" y2="100%"><stop offset="10%" stop-color="#ff9e81" stop-opacity="1"></stop><stop offset="90%" stop-color="#ff0000" stop-opacity="1"></stop></linearGradient></defs><defs><linearGradient id="grad2_2" x1="0%" y1="0%" x2="50%" y2="100%"><stop offset="10%" stop-color="#ff9e81" stop-opacity="1"></stop><stop offset="90%" stop-color="#ffffff" stop-opacity="1"></stop></linearGradient></defs><g transform="translate(2160, 0)"><path d="M0 972C-64.6 971.4 -129.1 970.8 -189.6 953.3C-250.1 935.9 -306.5 901.6 -358.2 864.8C-409.9 827.9 -456.9 788.6 -499.5 747.5C-542 706.4 -580.2 663.6 -624.4 624.4C-668.6 585.1 -718.9 549.4 -744.2 497.2C-769.5 445.1 -769.8 376.5 -765.9 317.2C-762 258 -753.9 208 -787.6 156.7C-821.2 105.3 -896.6 52.7 -972 0L0 0Z" fill="#ffcfbf"></path><path d="M0 648C-43 647.6 -86.1 647.2 -126.4 635.5C-166.7 623.9 -204.3 601.1 -238.8 576.5C-273.3 551.9 -304.6 525.7 -333 498.3C-361.4 470.9 -386.8 442.4 -416.3 416.3C-445.7 390.1 -479.2 366.3 -496.1 331.5C-513 296.7 -513.2 251 -510.6 211.5C-508 172 -502.6 138.7 -525 104.4C-547.5 70.2 -597.7 35.1 -648 0L0 0Z" fill="#ff6846"></path><path d="M0 324C-21.5 323.8 -43 323.6 -63.2 317.8C-83.4 312 -102.2 300.5 -119.4 288.3C-136.6 276 -152.3 262.9 -166.5 249.2C-180.7 235.5 -193.4 221.2 -208.1 208.1C-222.9 195 -239.6 183.1 -248.1 165.7C-256.5 148.4 -256.6 125.5 -255.3 105.7C-254 86 -251.3 69.3 -262.5 52.2C-273.7 35.1 -298.9 17.6 -324 0L0 0Z" fill="#ff0000"></path></g><g transform="translate(0, 1080)"><path d="M0 -972C54.2 -905.6 108.5 -839.2 161.5 -812.1C214.6 -785 266.5 -797.3 333.7 -805.6C400.9 -814 483.5 -818.4 511.1 -765C538.8 -711.5 511.5 -600.1 563.6 -563.6C615.6 -527 746.9 -565.3 808.2 -540C869.5 -514.8 860.8 -426 856.4 -354.7C852 -283.5 851.9 -229.6 871.9 -173.4C891.9 -117.2 931.9 -58.6 972 0L0 0Z" fill="#ffcfbf"></path><path d="M0 -648C36.2 -603.7 72.3 -559.4 107.7 -541.4C143.1 -523.3 177.7 -531.5 222.5 -537.1C267.3 -542.6 322.3 -545.6 340.7 -510C359.2 -474.3 341 -400.1 375.7 -375.7C410.4 -351.3 497.9 -376.8 538.8 -360C579.7 -343.2 573.9 -284 571 -236.5C568 -189 568 -153.1 581.3 -115.6C594.6 -78.1 621.3 -39.1 648 0L0 0Z" fill="#ff6846"></path><path d="M0 -324C18.1 -301.9 36.2 -279.7 53.8 -270.7C71.5 -261.7 88.8 -265.8 111.2 -268.5C133.6 -271.3 161.2 -272.8 170.4 -255C179.6 -237.2 170.5 -200 187.9 -187.9C205.2 -175.7 249 -188.4 269.4 -180C289.8 -171.6 286.9 -142 285.5 -118.2C284 -94.5 284 -76.5 290.6 -57.8C297.3 -39.1 310.6 -19.5 324 0L0 0Z" fill="#ff0000"></path></g></svg>